<svg width="177" height="28" viewBox="0 0 177 28" fill="none" xmlns="http://www.w3.org/2000/svg">
<path d="M16.244 21V13.128C16.244 12.24 16.024 11.548 15.584 11.052C15.144 10.548 14.548 10.296 13.796 10.296C13.332 10.296 12.916 10.404 12.548 10.62C12.18 10.828 11.888 11.14 11.672 11.556C11.456 11.964 11.348 12.452 11.348 13.02L10.064 12.264C10.056 11.368 10.256 10.58 10.664 9.9C11.08 9.212 11.64 8.676 12.344 8.292C13.048 7.908 13.832 7.716 14.696 7.716C16.128 7.716 17.224 8.148 17.984 9.012C18.752 9.868 19.136 10.996 19.136 12.396V21H16.244ZM0.656 21V8.04H3.212V12.06H3.572V21H0.656ZM8.468 21V13.164C8.468 12.26 8.248 11.556 7.808 11.052C7.368 10.548 6.768 10.296 6.008 10.296C5.272 10.296 4.68 10.548 4.232 11.052C3.792 11.556 3.572 12.212 3.572 13.02L2.276 12.156C2.276 11.316 2.484 10.56 2.9 9.888C3.316 9.216 3.876 8.688 4.58 8.304C5.292 7.912 6.088 7.716 6.968 7.716C7.936 7.716 8.744 7.924 9.392 8.34C10.048 8.748 10.536 9.308 10.856 10.02C11.184 10.724 11.348 11.52 11.348 12.408V21H8.468ZM22.5059 6.072V3.42H25.3979V6.072H22.5059ZM22.5059 21V8.04H25.3979V21H22.5059ZM37.9565 21V14.76C37.9565 14.352 37.9285 13.9 37.8725 13.404C37.8165 12.908 37.6845 12.432 37.4765 11.976C37.2765 11.512 36.9725 11.132 36.5645 10.836C36.1645 10.54 35.6205 10.392 34.9325 10.392C34.5645 10.392 34.2005 10.452 33.8405 10.572C33.4805 10.692 33.1525 10.9 32.8565 11.196C32.5685 11.484 32.3365 11.884 32.1605 12.396C31.9845 12.9 31.8965 13.548 31.8965 14.34L30.1805 13.608C30.1805 12.504 30.3925 11.504 30.8165 10.608C31.2485 9.712 31.8805 9 32.7125 8.472C33.5445 7.936 34.5685 7.668 35.7845 7.668C36.7445 7.668 37.5365 7.828 38.1605 8.148C38.7845 8.468 39.2805 8.876 39.6485 9.372C40.0165 9.868 40.2885 10.396 40.4645 10.956C40.6405 11.516 40.7525 12.048 40.8005 12.552C40.8565 13.048 40.8845 13.452 40.8845 13.764V21H37.9565ZM28.9685 21V8.04H31.5485V12.06H31.8965V21H28.9685ZM44.2559 6.072V3.42H47.1479V6.072H44.2559ZM44.2559 21V8.04H47.1479V21H44.2559ZM48.7825 27.72V24.556H49.4965C50.3178 24.556 50.9012 24.3647 51.2465 23.982C51.5918 23.5993 51.7645 23.0347 51.7645 22.288V5.88H55.1245V23.8C55.1245 25.0227 54.7652 25.9793 54.0465 26.67C53.3372 27.37 52.3478 27.72 51.0785 27.72H48.7825ZM51.7645 3.584V0.49H55.1245V3.584H51.7645ZM65.7669 21.42C64.2549 21.42 62.9342 21.0793 61.8049 20.398C60.6756 19.7167 59.7982 18.7787 59.1729 17.584C58.5569 16.38 58.2489 14.9987 58.2489 13.44C58.2489 11.8533 58.5662 10.4627 59.2009 9.268C59.8356 8.07333 60.7176 7.14 61.8469 6.468C62.9762 5.796 64.2829 5.46 65.7669 5.46C67.2882 5.46 68.6136 5.80067 69.7429 6.482C70.8722 7.16333 71.7496 8.106 72.3749 9.31C73.0002 10.5047 73.3129 11.8813 73.3129 13.44C73.3129 15.008 72.9956 16.394 72.3609 17.598C71.7356 18.7927 70.8582 19.7307 69.7289 20.412C68.5996 21.084 67.2789 21.42 65.7669 21.42ZM65.7669 18.256C67.1109 18.256 68.1096 17.808 68.7629 16.912C69.4162 16.016 69.7429 14.8587 69.7429 13.44C69.7429 11.9747 69.4116 10.808 68.7489 9.94C68.0862 9.06267 67.0922 8.624 65.7669 8.624C64.8616 8.624 64.1149 8.82933 63.5269 9.24C62.9482 9.64133 62.5189 10.206 62.2389 10.934C61.9589 11.6527 61.8189 12.488 61.8189 13.44C61.8189 14.9053 62.1502 16.0767 62.8129 16.954C63.4849 17.822 64.4696 18.256 65.7669 18.256ZM83.6635 21.42C82.1888 21.42 80.9522 21.07 79.9535 20.37C78.9548 19.67 78.2035 18.718 77.6995 17.514C77.1955 16.3007 76.9435 14.9427 76.9435 13.44C76.9435 11.9187 77.1955 10.556 77.6995 9.352C78.2035 8.148 78.9408 7.20067 79.9115 6.51C80.8915 5.81 82.1002 5.46 83.5375 5.46C84.9655 5.46 86.2022 5.81 87.2475 6.51C88.3022 7.20067 89.1188 8.148 89.6975 9.352C90.2762 10.5467 90.5655 11.9093 90.5655 13.44C90.5655 14.952 90.2808 16.31 89.7115 17.514C89.1422 18.718 88.3395 19.67 87.3035 20.37C86.2675 21.07 85.0542 21.42 83.6635 21.42ZM76.3695 21V0.839999H79.7715V10.388H79.3515V21H76.3695ZM83.1455 18.396C84.0228 18.396 84.7462 18.1767 85.3155 17.738C85.8848 17.2993 86.3048 16.7067 86.5755 15.96C86.8555 15.204 86.9955 14.364 86.9955 13.44C86.9955 12.5253 86.8555 11.6947 86.5755 10.948C86.2955 10.192 85.8615 9.59467 85.2735 9.156C84.6855 8.708 83.9388 8.484 83.0335 8.484C82.1748 8.484 81.4748 8.694 80.9335 9.114C80.3922 9.52467 79.9908 10.1033 79.7295 10.85C79.4775 11.5873 79.3515 12.4507 79.3515 13.44C79.3515 14.42 79.4775 15.2833 79.7295 16.03C79.9908 16.7767 80.3968 17.36 80.9475 17.78C81.5075 18.1907 82.2402 18.396 83.1455 18.396Z" fill="white"/>
<path d="M91.9233 21L98.2793 0.839999H103.221L109.577 21H106.105L100.337 2.912H101.093L95.3953 21H91.9233ZM95.4653 16.632V13.482H106.049V16.632H95.4653ZM118.17 21.42C116.78 21.42 115.566 21.07 114.53 20.37C113.494 19.67 112.692 18.718 112.122 17.514C111.553 16.31 111.268 14.952 111.268 13.44C111.268 11.9093 111.553 10.5467 112.122 9.352C112.701 8.148 113.518 7.20067 114.572 6.51C115.627 5.81 116.868 5.46 118.296 5.46C119.734 5.46 120.938 5.81 121.908 6.51C122.888 7.20067 123.63 8.148 124.134 9.352C124.638 10.556 124.89 11.9187 124.89 13.44C124.89 14.9427 124.638 16.3007 124.134 17.514C123.63 18.718 122.879 19.67 121.88 20.37C120.882 21.07 119.645 21.42 118.17 21.42ZM118.688 18.396C119.594 18.396 120.322 18.1907 120.872 17.78C121.432 17.36 121.838 16.7767 122.09 16.03C122.352 15.2833 122.482 14.42 122.482 13.44C122.482 12.4507 122.352 11.5873 122.09 10.85C121.838 10.1033 121.442 9.52467 120.9 9.114C120.359 8.694 119.659 8.484 118.8 8.484C117.895 8.484 117.148 8.708 116.56 9.156C115.972 9.59467 115.538 10.192 115.258 10.948C114.978 11.6947 114.838 12.5253 114.838 13.44C114.838 14.364 114.974 15.204 115.244 15.96C115.524 16.7067 115.949 17.2993 116.518 17.738C117.088 18.1767 117.811 18.396 118.688 18.396ZM122.482 21V10.388H122.062V0.839999H125.464V21H122.482ZM147.548 21V11.816C147.548 10.78 147.291 9.97267 146.778 9.394C146.264 8.806 145.569 8.512 144.692 8.512C144.15 8.512 143.665 8.638 143.236 8.89C142.806 9.13267 142.466 9.49667 142.214 9.982C141.962 10.458 141.836 11.0273 141.836 11.69L140.338 10.808C140.328 9.76267 140.562 8.84333 141.038 8.05C141.523 7.24733 142.176 6.622 142.998 6.174C143.819 5.726 144.734 5.502 145.742 5.502C147.412 5.502 148.691 6.006 149.578 7.014C150.474 8.01267 150.922 9.32867 150.922 10.962V21H147.548ZM129.362 21V5.88H132.344V10.57H132.764V21H129.362ZM138.476 21V11.858C138.476 10.8033 138.219 9.982 137.706 9.394C137.192 8.806 136.492 8.512 135.606 8.512C134.747 8.512 134.056 8.806 133.534 9.394C133.02 9.982 132.764 10.7473 132.764 11.69L131.252 10.682C131.252 9.702 131.494 8.82 131.98 8.036C132.465 7.252 133.118 6.636 133.94 6.188C134.77 5.73067 135.699 5.502 136.726 5.502C137.855 5.502 138.798 5.74467 139.554 6.23C140.319 6.706 140.888 7.35933 141.262 8.19C141.644 9.01133 141.836 9.94 141.836 10.976V21H138.476ZM154.853 3.584V0.49H158.227V3.584H154.853ZM154.853 21V5.88H158.227V21H154.853ZM172.879 21V13.72C172.879 13.244 172.846 12.7167 172.781 12.138C172.716 11.5593 172.562 11.004 172.319 10.472C172.086 9.93067 171.731 9.48733 171.255 9.142C170.788 8.79667 170.154 8.624 169.351 8.624C168.922 8.624 168.497 8.694 168.077 8.834C167.657 8.974 167.274 9.21667 166.929 9.562C166.593 9.898 166.322 10.3647 166.117 10.962C165.912 11.55 165.809 12.306 165.809 13.23L163.807 12.376C163.807 11.088 164.054 9.92133 164.549 8.876C165.053 7.83067 165.79 7 166.761 6.384C167.732 5.75867 168.926 5.446 170.345 5.446C171.465 5.446 172.389 5.63267 173.117 6.006C173.845 6.37933 174.424 6.85533 174.853 7.434C175.282 8.01267 175.6 8.62867 175.805 9.282C176.01 9.93533 176.141 10.556 176.197 11.144C176.262 11.7227 176.295 12.194 176.295 12.558V21H172.879ZM162.393 21V5.88H165.403V10.57H165.809V21H162.393Z" fill="url(#paint0_linear_616_379)"/>
<defs>
<linearGradient id="paint0_linear_616_379" x1="136.022" y1="-14.5" x2="136.022" y2="54" gradientUnits="userSpaceOnUse">
<stop stop-color="#9D4EDD"/>
<stop offset="1" stop-color="#240046"/>
</linearGradient>
</defs>
</svg>
