<svg width="221" height="28" viewBox="0 0 221 28" fill="none" xmlns="http://www.w3.org/2000/svg">
<path d="M16.244 21V13.128C16.244 12.24 16.024 11.548 15.584 11.052C15.144 10.548 14.548 10.296 13.796 10.296C13.332 10.296 12.916 10.404 12.548 10.62C12.18 10.828 11.888 11.14 11.672 11.556C11.456 11.964 11.348 12.452 11.348 13.02L10.064 12.264C10.056 11.368 10.256 10.58 10.664 9.9C11.08 9.212 11.64 8.676 12.344 8.292C13.048 7.908 13.832 7.716 14.696 7.716C16.128 7.716 17.224 8.148 17.984 9.012C18.752 9.868 19.136 10.996 19.136 12.396V21H16.244ZM0.656 21V8.04H3.212V12.06H3.572V21H0.656ZM8.468 21V13.164C8.468 12.26 8.248 11.556 7.808 11.052C7.368 10.548 6.768 10.296 6.008 10.296C5.272 10.296 4.68 10.548 4.232 11.052C3.792 11.556 3.572 12.212 3.572 13.02L2.276 12.156C2.276 11.316 2.484 10.56 2.9 9.888C3.316 9.216 3.876 8.688 4.58 8.304C5.292 7.912 6.088 7.716 6.968 7.716C7.936 7.716 8.744 7.924 9.392 8.34C10.048 8.748 10.536 9.308 10.856 10.02C11.184 10.724 11.348 11.52 11.348 12.408V21H8.468ZM22.5059 6.072V3.42H25.3979V6.072H22.5059ZM22.5059 21V8.04H25.3979V21H22.5059ZM37.9565 21V14.76C37.9565 14.352 37.9285 13.9 37.8725 13.404C37.8165 12.908 37.6845 12.432 37.4765 11.976C37.2765 11.512 36.9725 11.132 36.5645 10.836C36.1645 10.54 35.6205 10.392 34.9325 10.392C34.5645 10.392 34.2005 10.452 33.8405 10.572C33.4805 10.692 33.1525 10.9 32.8565 11.196C32.5685 11.484 32.3365 11.884 32.1605 12.396C31.9845 12.9 31.8965 13.548 31.8965 14.34L30.1805 13.608C30.1805 12.504 30.3925 11.504 30.8165 10.608C31.2485 9.712 31.8805 9 32.7125 8.472C33.5445 7.936 34.5685 7.668 35.7845 7.668C36.7445 7.668 37.5365 7.828 38.1605 8.148C38.7845 8.468 39.2805 8.876 39.6485 9.372C40.0165 9.868 40.2885 10.396 40.4645 10.956C40.6405 11.516 40.7525 12.048 40.8005 12.552C40.8565 13.048 40.8845 13.452 40.8845 13.764V21H37.9565ZM28.9685 21V8.04H31.5485V12.06H31.8965V21H28.9685ZM44.2559 6.072V3.42H47.1479V6.072H44.2559ZM44.2559 21V8.04H47.1479V21H44.2559ZM48.7825 27.72V24.556H49.4965C50.3178 24.556 50.9012 24.3647 51.2465 23.982C51.5918 23.5993 51.7645 23.0347 51.7645 22.288V5.88H55.1245V23.8C55.1245 25.0227 54.7652 25.9793 54.0465 26.67C53.3372 27.37 52.3478 27.72 51.0785 27.72H48.7825ZM51.7645 3.584V0.49H55.1245V3.584H51.7645ZM65.7669 21.42C64.2549 21.42 62.9342 21.0793 61.8049 20.398C60.6756 19.7167 59.7982 18.7787 59.1729 17.584C58.5569 16.38 58.2489 14.9987 58.2489 13.44C58.2489 11.8533 58.5662 10.4627 59.2009 9.268C59.8356 8.07333 60.7176 7.14 61.8469 6.468C62.9762 5.796 64.2829 5.46 65.7669 5.46C67.2882 5.46 68.6136 5.80067 69.7429 6.482C70.8722 7.16333 71.7496 8.106 72.3749 9.31C73.0002 10.5047 73.3129 11.8813 73.3129 13.44C73.3129 15.008 72.9956 16.394 72.3609 17.598C71.7356 18.7927 70.8582 19.7307 69.7289 20.412C68.5996 21.084 67.2789 21.42 65.7669 21.42ZM65.7669 18.256C67.1109 18.256 68.1096 17.808 68.7629 16.912C69.4162 16.016 69.7429 14.8587 69.7429 13.44C69.7429 11.9747 69.4116 10.808 68.7489 9.94C68.0862 9.06267 67.0922 8.624 65.7669 8.624C64.8616 8.624 64.1149 8.82933 63.5269 9.24C62.9482 9.64133 62.5189 10.206 62.2389 10.934C61.9589 11.6527 61.8189 12.488 61.8189 13.44C61.8189 14.9053 62.1502 16.0767 62.8129 16.954C63.4849 17.822 64.4696 18.256 65.7669 18.256ZM83.6635 21.42C82.1888 21.42 80.9522 21.07 79.9535 20.37C78.9548 19.67 78.2035 18.718 77.6995 17.514C77.1955 16.3007 76.9435 14.9427 76.9435 13.44C76.9435 11.9187 77.1955 10.556 77.6995 9.352C78.2035 8.148 78.9408 7.20067 79.9115 6.51C80.8915 5.81 82.1002 5.46 83.5375 5.46C84.9655 5.46 86.2022 5.81 87.2475 6.51C88.3022 7.20067 89.1188 8.148 89.6975 9.352C90.2762 10.5467 90.5655 11.9093 90.5655 13.44C90.5655 14.952 90.2808 16.31 89.7115 17.514C89.1422 18.718 88.3395 19.67 87.3035 20.37C86.2675 21.07 85.0542 21.42 83.6635 21.42ZM76.3695 21V0.839999H79.7715V10.388H79.3515V21H76.3695ZM83.1455 18.396C84.0228 18.396 84.7462 18.1767 85.3155 17.738C85.8848 17.2993 86.3048 16.7067 86.5755 15.96C86.8555 15.204 86.9955 14.364 86.9955 13.44C86.9955 12.5253 86.8555 11.6947 86.5755 10.948C86.2955 10.192 85.8615 9.59467 85.2735 9.156C84.6855 8.708 83.9388 8.484 83.0335 8.484C82.1748 8.484 81.4748 8.694 80.9335 9.114C80.3922 9.52467 79.9908 10.1033 79.7295 10.85C79.4775 11.5873 79.3515 12.4507 79.3515 13.44C79.3515 14.42 79.4775 15.2833 79.7295 16.03C79.9908 16.7767 80.3968 17.36 80.9475 17.78C81.5075 18.1907 82.2402 18.396 83.1455 18.396Z" fill="#252323"/>
<path d="M102.177 21.42C100.161 21.42 98.4347 20.9813 96.9974 20.104C95.5601 19.2173 94.4541 17.9853 93.6794 16.408C92.9141 14.8307 92.5314 13.0013 92.5314 10.92C92.5314 8.83867 92.9141 7.00933 93.6794 5.432C94.4541 3.85467 95.5601 2.62733 96.9974 1.75C98.4347 0.863333 100.161 0.42 102.177 0.42C104.501 0.42 106.438 1.00333 107.987 2.17C109.537 3.32733 110.624 4.89067 111.249 6.86L107.847 7.798C107.455 6.482 106.788 5.45533 105.845 4.718C104.903 3.97133 103.68 3.598 102.177 3.598C100.824 3.598 99.6947 3.90133 98.7894 4.508C97.8934 5.11467 97.2167 5.96867 96.7594 7.07C96.3114 8.162 96.0827 9.44533 96.0734 10.92C96.0734 12.3947 96.2974 13.6827 96.7454 14.784C97.2027 15.876 97.8841 16.7253 98.7894 17.332C99.6947 17.9387 100.824 18.242 102.177 18.242C103.68 18.242 104.903 17.8687 105.845 17.122C106.788 16.3753 107.455 15.3487 107.847 14.042L111.249 14.98C110.624 16.9493 109.537 18.5173 107.987 19.684C106.438 20.8413 104.501 21.42 102.177 21.42ZM121.001 21.42C119.489 21.42 118.169 21.0793 117.039 20.398C115.91 19.7167 115.033 18.7787 114.407 17.584C113.791 16.38 113.483 14.9987 113.483 13.44C113.483 11.8533 113.801 10.4627 114.435 9.268C115.07 8.07333 115.952 7.14 117.081 6.468C118.211 5.796 119.517 5.46 121.001 5.46C122.523 5.46 123.848 5.80067 124.977 6.482C126.107 7.16333 126.984 8.106 127.609 9.31C128.235 10.5047 128.547 11.8813 128.547 13.44C128.547 15.008 128.23 16.394 127.595 17.598C126.97 18.7927 126.093 19.7307 124.963 20.412C123.834 21.084 122.513 21.42 121.001 21.42ZM121.001 18.256C122.345 18.256 123.344 17.808 123.997 16.912C124.651 16.016 124.977 14.8587 124.977 13.44C124.977 11.9747 124.646 10.808 123.983 9.94C123.321 9.06267 122.327 8.624 121.001 8.624C120.096 8.624 119.349 8.82933 118.761 9.24C118.183 9.64133 117.753 10.206 117.473 10.934C117.193 11.6527 117.053 12.488 117.053 13.44C117.053 14.9053 117.385 16.0767 118.047 16.954C118.719 17.822 119.704 18.256 121.001 18.256ZM149.79 21V11.816C149.79 10.78 149.533 9.97267 149.02 9.394C148.507 8.806 147.811 8.512 146.934 8.512C146.393 8.512 145.907 8.638 145.478 8.89C145.049 9.13267 144.708 9.49667 144.456 9.982C144.204 10.458 144.078 11.0273 144.078 11.69L142.58 10.808C142.571 9.76267 142.804 8.84333 143.28 8.05C143.765 7.24733 144.419 6.622 145.24 6.174C146.061 5.726 146.976 5.502 147.984 5.502C149.655 5.502 150.933 6.006 151.82 7.014C152.716 8.01267 153.164 9.32867 153.164 10.962V21H149.79ZM131.604 21V5.88H134.586V10.57H135.006V21H131.604ZM140.718 21V11.858C140.718 10.8033 140.461 9.982 139.948 9.394C139.435 8.806 138.735 8.512 137.848 8.512C136.989 8.512 136.299 8.806 135.776 9.394C135.263 9.982 135.006 10.7473 135.006 11.69L133.494 10.682C133.494 9.702 133.737 8.82 134.222 8.036C134.707 7.252 135.361 6.636 136.182 6.188C137.013 5.73067 137.941 5.502 138.968 5.502C140.097 5.502 141.04 5.74467 141.796 6.23C142.561 6.706 143.131 7.35933 143.504 8.19C143.887 9.01133 144.078 9.94 144.078 10.976V21H140.718ZM164.081 21.42C162.607 21.42 161.37 21.07 160.371 20.37C159.373 19.67 158.621 18.718 158.117 17.514C157.613 16.3007 157.361 14.9427 157.361 13.44C157.361 11.9187 157.613 10.556 158.117 9.352C158.621 8.148 159.359 7.20067 160.329 6.51C161.309 5.81 162.518 5.46 163.955 5.46C165.383 5.46 166.62 5.81 167.665 6.51C168.72 7.20067 169.537 8.148 170.115 9.352C170.694 10.5467 170.983 11.9093 170.983 13.44C170.983 14.952 170.699 16.31 170.129 17.514C169.56 18.718 168.757 19.67 167.721 20.37C166.685 21.07 165.472 21.42 164.081 21.42ZM156.787 27.72V5.88H159.769V16.492H160.189V27.72H156.787ZM163.563 18.396C164.441 18.396 165.164 18.1767 165.733 17.738C166.303 17.2993 166.723 16.7067 166.993 15.96C167.273 15.204 167.413 14.364 167.413 13.44C167.413 12.5253 167.273 11.6947 166.993 10.948C166.713 10.192 166.279 9.59467 165.691 9.156C165.103 8.708 164.357 8.484 163.451 8.484C162.593 8.484 161.893 8.694 161.351 9.114C160.81 9.52467 160.409 10.1033 160.147 10.85C159.895 11.5873 159.769 12.4507 159.769 13.44C159.769 14.42 159.895 15.2833 160.147 16.03C160.409 16.7767 160.815 17.36 161.365 17.78C161.925 18.1907 162.658 18.396 163.563 18.396ZM178.297 21.42C177.205 21.42 176.281 21.2147 175.525 20.804C174.769 20.384 174.195 19.8287 173.803 19.138C173.421 18.4473 173.229 17.6867 173.229 16.856C173.229 16.128 173.351 15.4747 173.593 14.896C173.836 14.308 174.209 13.804 174.713 13.384C175.217 12.9547 175.871 12.6047 176.673 12.334C177.28 12.138 177.989 11.9607 178.801 11.802C179.623 11.6433 180.509 11.4987 181.461 11.368C182.423 11.228 183.426 11.0787 184.471 10.92L183.267 11.606C183.277 10.5607 183.043 9.79067 182.567 9.296C182.091 8.80133 181.289 8.554 180.159 8.554C179.478 8.554 178.82 8.71267 178.185 9.03C177.551 9.34733 177.107 9.89333 176.855 10.668L173.775 9.702C174.149 8.42333 174.858 7.39667 175.903 6.622C176.958 5.84733 178.377 5.46 180.159 5.46C181.503 5.46 182.684 5.67933 183.701 6.118C184.728 6.55667 185.489 7.27533 185.983 8.274C186.254 8.806 186.417 9.352 186.473 9.912C186.529 10.4627 186.557 11.0647 186.557 11.718V21H183.603V17.724L184.093 18.256C183.412 19.348 182.614 20.1507 181.699 20.664C180.794 21.168 179.66 21.42 178.297 21.42ZM178.969 18.732C179.735 18.732 180.388 18.5967 180.929 18.326C181.471 18.0553 181.9 17.724 182.217 17.332C182.544 16.94 182.763 16.5713 182.875 16.226C183.053 15.7967 183.151 15.3067 183.169 14.756C183.197 14.196 183.211 13.7433 183.211 13.398L184.247 13.706C183.23 13.8647 182.357 14.0047 181.629 14.126C180.901 14.2473 180.276 14.364 179.753 14.476C179.231 14.5787 178.769 14.6953 178.367 14.826C177.975 14.966 177.644 15.1293 177.373 15.316C177.103 15.5027 176.893 15.7173 176.743 15.96C176.603 16.2027 176.533 16.4873 176.533 16.814C176.533 17.1873 176.627 17.5187 176.813 17.808C177 18.088 177.271 18.312 177.625 18.48C177.989 18.648 178.437 18.732 178.969 18.732ZM200.66 21V13.72C200.66 13.244 200.628 12.7167 200.562 12.138C200.497 11.5593 200.343 11.004 200.1 10.472C199.867 9.93067 199.512 9.48733 199.036 9.142C198.57 8.79667 197.935 8.624 197.132 8.624C196.703 8.624 196.278 8.694 195.858 8.834C195.438 8.974 195.056 9.21667 194.71 9.562C194.374 9.898 194.104 10.3647 193.898 10.962C193.693 11.55 193.59 12.306 193.59 13.23L191.588 12.376C191.588 11.088 191.836 9.92133 192.33 8.876C192.834 7.83067 193.572 7 194.542 6.384C195.513 5.75867 196.708 5.446 198.126 5.446C199.246 5.446 200.17 5.63267 200.898 6.006C201.626 6.37933 202.205 6.85533 202.634 7.434C203.064 8.01267 203.381 8.62867 203.586 9.282C203.792 9.93533 203.922 10.556 203.978 11.144C204.044 11.7227 204.076 12.194 204.076 12.558V21H200.66ZM190.174 21V5.88H193.184V10.57H193.59V21H190.174ZM209.171 27.72L212.083 19.726L212.139 22.078L205.545 5.88H209.059L213.735 17.864H212.839L217.389 5.88H220.763L212.335 27.72H209.171Z" fill="url(#paint0_linear_590_265)"/>
<defs>
<linearGradient id="paint0_linear_590_265" x1="171.039" y1="-14.5" x2="171.039" y2="54" gradientUnits="userSpaceOnUse">
<stop stop-color="#6CCFF6"/>
<stop offset="1" stop-color="#252323"/>
</linearGradient>
</defs>
</svg>
