<svg width="176" height="28" viewBox="0 0 176 28" fill="none" xmlns="http://www.w3.org/2000/svg">
<path d="M16.244 21V13.128C16.244 12.24 16.024 11.548 15.584 11.052C15.144 10.548 14.548 10.296 13.796 10.296C13.332 10.296 12.916 10.404 12.548 10.62C12.18 10.828 11.888 11.14 11.672 11.556C11.456 11.964 11.348 12.452 11.348 13.02L10.064 12.264C10.056 11.368 10.256 10.58 10.664 9.9C11.08 9.212 11.64 8.676 12.344 8.292C13.048 7.908 13.832 7.716 14.696 7.716C16.128 7.716 17.224 8.148 17.984 9.012C18.752 9.868 19.136 10.996 19.136 12.396V21H16.244ZM0.656 21V8.04H3.212V12.06H3.572V21H0.656ZM8.468 21V13.164C8.468 12.26 8.248 11.556 7.808 11.052C7.368 10.548 6.768 10.296 6.008 10.296C5.272 10.296 4.68 10.548 4.232 11.052C3.792 11.556 3.572 12.212 3.572 13.02L2.276 12.156C2.276 11.316 2.484 10.56 2.9 9.888C3.316 9.216 3.876 8.688 4.58 8.304C5.292 7.912 6.088 7.716 6.968 7.716C7.936 7.716 8.744 7.924 9.392 8.34C10.048 8.748 10.536 9.308 10.856 10.02C11.184 10.724 11.348 11.52 11.348 12.408V21H8.468ZM22.5059 6.072V3.42H25.3979V6.072H22.5059ZM22.5059 21V8.04H25.3979V21H22.5059ZM37.9565 21V14.76C37.9565 14.352 37.9285 13.9 37.8725 13.404C37.8165 12.908 37.6845 12.432 37.4765 11.976C37.2765 11.512 36.9725 11.132 36.5645 10.836C36.1645 10.54 35.6205 10.392 34.9325 10.392C34.5645 10.392 34.2005 10.452 33.8405 10.572C33.4805 10.692 33.1525 10.9 32.8565 11.196C32.5685 11.484 32.3365 11.884 32.1605 12.396C31.9845 12.9 31.8965 13.548 31.8965 14.34L30.1805 13.608C30.1805 12.504 30.3925 11.504 30.8165 10.608C31.2485 9.712 31.8805 9 32.7125 8.472C33.5445 7.936 34.5685 7.668 35.7845 7.668C36.7445 7.668 37.5365 7.828 38.1605 8.148C38.7845 8.468 39.2805 8.876 39.6485 9.372C40.0165 9.868 40.2885 10.396 40.4645 10.956C40.6405 11.516 40.7525 12.048 40.8005 12.552C40.8565 13.048 40.8845 13.452 40.8845 13.764V21H37.9565ZM28.9685 21V8.04H31.5485V12.06H31.8965V21H28.9685ZM44.2559 6.072V3.42H47.1479V6.072H44.2559ZM44.2559 21V8.04H47.1479V21H44.2559ZM48.7825 27.72V24.556H49.4965C50.3178 24.556 50.9012 24.3647 51.2465 23.982C51.5918 23.5993 51.7645 23.0347 51.7645 22.288V5.88H55.1245V23.8C55.1245 25.0227 54.7652 25.9793 54.0465 26.67C53.3372 27.37 52.3478 27.72 51.0785 27.72H48.7825ZM51.7645 3.584V0.49H55.1245V3.584H51.7645ZM65.7669 21.42C64.2549 21.42 62.9342 21.0793 61.8049 20.398C60.6756 19.7167 59.7982 18.7787 59.1729 17.584C58.5569 16.38 58.2489 14.9987 58.2489 13.44C58.2489 11.8533 58.5662 10.4627 59.2009 9.268C59.8356 8.07333 60.7176 7.14 61.8469 6.468C62.9762 5.796 64.2829 5.46 65.7669 5.46C67.2882 5.46 68.6136 5.80067 69.7429 6.482C70.8722 7.16333 71.7496 8.106 72.3749 9.31C73.0002 10.5047 73.3129 11.8813 73.3129 13.44C73.3129 15.008 72.9956 16.394 72.3609 17.598C71.7356 18.7927 70.8582 19.7307 69.7289 20.412C68.5996 21.084 67.2789 21.42 65.7669 21.42ZM65.7669 18.256C67.1109 18.256 68.1096 17.808 68.7629 16.912C69.4162 16.016 69.7429 14.8587 69.7429 13.44C69.7429 11.9747 69.4116 10.808 68.7489 9.94C68.0862 9.06267 67.0922 8.624 65.7669 8.624C64.8616 8.624 64.1149 8.82933 63.5269 9.24C62.9482 9.64133 62.5189 10.206 62.2389 10.934C61.9589 11.6527 61.8189 12.488 61.8189 13.44C61.8189 14.9053 62.1502 16.0767 62.8129 16.954C63.4849 17.822 64.4696 18.256 65.7669 18.256ZM83.6635 21.42C82.1888 21.42 80.9522 21.07 79.9535 20.37C78.9548 19.67 78.2035 18.718 77.6995 17.514C77.1955 16.3007 76.9435 14.9427 76.9435 13.44C76.9435 11.9187 77.1955 10.556 77.6995 9.352C78.2035 8.148 78.9408 7.20067 79.9115 6.51C80.8915 5.81 82.1002 5.46 83.5375 5.46C84.9655 5.46 86.2022 5.81 87.2475 6.51C88.3022 7.20067 89.1188 8.148 89.6975 9.352C90.2762 10.5467 90.5655 11.9093 90.5655 13.44C90.5655 14.952 90.2808 16.31 89.7115 17.514C89.1422 18.718 88.3395 19.67 87.3035 20.37C86.2675 21.07 85.0542 21.42 83.6635 21.42ZM76.3695 21V0.839999H79.7715V10.388H79.3515V21H76.3695ZM83.1455 18.396C84.0228 18.396 84.7462 18.1767 85.3155 17.738C85.8848 17.2993 86.3048 16.7067 86.5755 15.96C86.8555 15.204 86.9955 14.364 86.9955 13.44C86.9955 12.5253 86.8555 11.6947 86.5755 10.948C86.2955 10.192 85.8615 9.59467 85.2735 9.156C84.6855 8.708 83.9388 8.484 83.0335 8.484C82.1748 8.484 81.4748 8.694 80.9335 9.114C80.3922 9.52467 79.9908 10.1033 79.7295 10.85C79.4775 11.5873 79.3515 12.4507 79.3515 13.44C79.3515 14.42 79.4775 15.2833 79.7295 16.03C79.9908 16.7767 80.3968 17.36 80.9475 17.78C81.5075 18.1907 82.2402 18.396 83.1455 18.396Z" fill="#F7F7F7"/>
<path d="M93.6514 21V0.839999H96.6894L103.661 15.12L110.633 0.839999H113.671V21H110.521V8.078L104.333 21H102.989L96.8154 8.078V21H93.6514ZM121.833 21.42C120.741 21.42 119.817 21.2147 119.061 20.804C118.305 20.384 117.731 19.8287 117.339 19.138C116.956 18.4473 116.765 17.6867 116.765 16.856C116.765 16.128 116.886 15.4747 117.129 14.896C117.371 14.308 117.745 13.804 118.249 13.384C118.753 12.9547 119.406 12.6047 120.209 12.334C120.815 12.138 121.525 11.9607 122.337 11.802C123.158 11.6433 124.045 11.4987 124.997 11.368C125.958 11.228 126.961 11.0787 128.007 10.92L126.803 11.606C126.812 10.5607 126.579 9.79067 126.103 9.296C125.627 8.80133 124.824 8.554 123.695 8.554C123.013 8.554 122.355 8.71267 121.721 9.03C121.086 9.34733 120.643 9.89333 120.391 10.668L117.311 9.702C117.684 8.42333 118.393 7.39667 119.439 6.622C120.493 5.84733 121.912 5.46 123.695 5.46C125.039 5.46 126.219 5.67933 127.237 6.118C128.263 6.55667 129.024 7.27533 129.519 8.274C129.789 8.806 129.953 9.352 130.009 9.912C130.065 10.4627 130.093 11.0647 130.093 11.718V21H127.139V17.724L127.629 18.256C126.947 19.348 126.149 20.1507 125.235 20.664C124.329 21.168 123.195 21.42 121.833 21.42ZM122.505 18.732C123.27 18.732 123.923 18.5967 124.465 18.326C125.006 18.0553 125.435 17.724 125.753 17.332C126.079 16.94 126.299 16.5713 126.411 16.226C126.588 15.7967 126.686 15.3067 126.705 14.756C126.733 14.196 126.747 13.7433 126.747 13.398L127.783 13.706C126.765 13.8647 125.893 14.0047 125.165 14.126C124.437 14.2473 123.811 14.364 123.289 14.476C122.766 14.5787 122.304 14.6953 121.903 14.826C121.511 14.966 121.179 15.1293 120.909 15.316C120.638 15.5027 120.428 15.7173 120.279 15.96C120.139 16.2027 120.069 16.4873 120.069 16.814C120.069 17.1873 120.162 17.5187 120.349 17.808C120.535 18.088 120.806 18.312 121.161 18.48C121.525 18.648 121.973 18.732 122.505 18.732ZM142.599 21C141.601 21.1867 140.621 21.266 139.659 21.238C138.707 21.2193 137.853 21.0467 137.097 20.72C136.341 20.384 135.767 19.8567 135.375 19.138C135.03 18.4847 134.848 17.8173 134.829 17.136C134.811 16.4547 134.801 15.6847 134.801 14.826V1.68H138.161V14.63C138.161 15.2367 138.166 15.7687 138.175 16.226C138.194 16.6833 138.292 17.0567 138.469 17.346C138.805 17.906 139.342 18.2187 140.079 18.284C140.817 18.3493 141.657 18.312 142.599 18.172V21ZM132.057 8.526V5.88H142.599V8.526H132.057ZM151.651 21.42C150.092 21.42 148.762 21.0747 147.661 20.384C146.56 19.684 145.715 18.732 145.127 17.528C144.548 16.324 144.254 14.9613 144.245 13.44C144.254 11.8907 144.558 10.5187 145.155 9.324C145.762 8.12 146.62 7.17733 147.731 6.496C148.842 5.80533 150.162 5.46 151.693 5.46C153.41 5.46 154.862 5.894 156.047 6.762C157.242 7.62067 158.021 8.79667 158.385 10.29L155.025 11.2C154.764 10.388 154.33 9.758 153.723 9.31C153.116 8.85267 152.426 8.624 151.651 8.624C150.774 8.624 150.05 8.834 149.481 9.254C148.912 9.66467 148.492 10.234 148.221 10.962C147.95 11.69 147.815 12.516 147.815 13.44C147.815 14.8773 148.137 16.0393 148.781 16.926C149.425 17.8127 150.382 18.256 151.651 18.256C152.547 18.256 153.252 18.0507 153.765 17.64C154.288 17.2293 154.68 16.6367 154.941 15.862L158.385 16.632C157.918 18.172 157.102 19.3573 155.935 20.188C154.768 21.0093 153.34 21.42 151.651 21.42ZM171.648 21V13.72C171.648 13.244 171.616 12.7167 171.55 12.138C171.485 11.5593 171.331 11.004 171.088 10.472C170.855 9.93067 170.5 9.48733 170.024 9.142C169.558 8.79667 168.923 8.624 168.12 8.624C167.691 8.624 167.266 8.694 166.846 8.834C166.426 8.974 166.044 9.21667 165.698 9.562C165.362 9.898 165.092 10.3647 164.886 10.962C164.681 11.55 164.578 12.306 164.578 13.23L162.576 12.376C162.576 11.088 162.824 9.92133 163.318 8.876C163.822 7.83067 164.56 7 165.53 6.384C166.501 5.75867 167.696 5.446 169.114 5.446C170.234 5.446 171.158 5.63267 171.886 6.006C172.614 6.37933 173.193 6.85533 173.622 7.434C174.052 8.01267 174.369 8.62867 174.574 9.282C174.78 9.93533 174.91 10.556 174.966 11.144C175.032 11.7227 175.064 12.194 175.064 12.558V21H171.648ZM161.162 21V0.839999H164.172V11.452H164.578V21H161.162Z" fill="url(#paint0_linear_156_707)"/>
<defs>
<linearGradient id="paint0_linear_156_707" x1="134.5" y1="-14.5" x2="134.5" y2="54" gradientUnits="userSpaceOnUse">
<stop stop-color="#6CCFF6"/>
<stop offset="1" stop-color="#252323"/>
</linearGradient>
</defs>
</svg>
